<mxfile host="app.diagrams.net" modified="2022-03-10T10:55:44.672Z" agent="5.0 (Macintosh; Intel Mac OS X 10_15_7) AppleWebKit/537.36 (KHTML, like Gecko) Chrome/99.0.4844.51 Safari/537.36" etag="zVoLd_I4965uTo7_x9aX" version="17.0.0" type="github" pages="2">
  <diagram id="f3z8LUxS0F5tv5ox8nNE" name="Page-1">
    <mxGraphModel dx="946" dy="589" grid="1" gridSize="10" guides="1" tooltips="1" connect="1" arrows="1" fold="1" page="1" pageScale="1" pageWidth="827" pageHeight="1169" math="0" shadow="0">
      <root>
        <mxCell id="0" />
        <mxCell id="1" parent="0" />
        <mxCell id="pnxO0p76b-OSnM60FBbu-100" value="Users" style="shape=table;startSize=30;container=1;collapsible=1;childLayout=tableLayout;fixedRows=1;rowLines=0;fontStyle=1;align=center;resizeLast=1;" vertex="1" parent="1">
          <mxGeometry x="20" y="100" width="351" height="250" as="geometry" />
        </mxCell>
        <mxCell id="pnxO0p76b-OSnM60FBbu-101" value="" style="shape=partialRectangle;collapsible=0;dropTarget=0;pointerEvents=0;fillColor=none;top=0;left=0;bottom=1;right=0;points=[[0,0.5],[1,0.5]];portConstraint=eastwest;" vertex="1" parent="pnxO0p76b-OSnM60FBbu-100">
          <mxGeometry y="30" width="351" height="30" as="geometry" />
        </mxCell>
        <mxCell id="pnxO0p76b-OSnM60FBbu-102" value="PK" style="shape=partialRectangle;connectable=0;fillColor=none;top=0;left=0;bottom=0;right=0;fontStyle=1;overflow=hidden;" vertex="1" parent="pnxO0p76b-OSnM60FBbu-101">
          <mxGeometry width="30" height="30" as="geometry">
            <mxRectangle width="30" height="30" as="alternateBounds" />
          </mxGeometry>
        </mxCell>
        <mxCell id="pnxO0p76b-OSnM60FBbu-103" value="ID" style="shape=partialRectangle;connectable=0;fillColor=none;top=0;left=0;bottom=0;right=0;align=left;spacingLeft=6;fontStyle=5;overflow=hidden;" vertex="1" parent="pnxO0p76b-OSnM60FBbu-101">
          <mxGeometry x="30" width="201.00000000000003" height="30" as="geometry">
            <mxRectangle width="201.00000000000003" height="30" as="alternateBounds" />
          </mxGeometry>
        </mxCell>
        <mxCell id="pnxO0p76b-OSnM60FBbu-104" value="uuid" style="shape=partialRectangle;connectable=0;fillColor=none;top=0;left=0;bottom=0;right=0;align=left;spacingLeft=6;fontStyle=5;overflow=hidden;" vertex="1" parent="pnxO0p76b-OSnM60FBbu-101">
          <mxGeometry x="231.00000000000003" width="119.99999999999997" height="30" as="geometry">
            <mxRectangle width="119.99999999999997" height="30" as="alternateBounds" />
          </mxGeometry>
        </mxCell>
        <mxCell id="pnxO0p76b-OSnM60FBbu-105" value="" style="shape=partialRectangle;collapsible=0;dropTarget=0;pointerEvents=0;fillColor=none;top=0;left=0;bottom=0;right=0;points=[[0,0.5],[1,0.5]];portConstraint=eastwest;" vertex="1" parent="pnxO0p76b-OSnM60FBbu-100">
          <mxGeometry y="60" width="351" height="30" as="geometry" />
        </mxCell>
        <mxCell id="pnxO0p76b-OSnM60FBbu-106" value="" style="shape=partialRectangle;connectable=0;fillColor=none;top=0;left=0;bottom=0;right=0;editable=1;overflow=hidden;" vertex="1" parent="pnxO0p76b-OSnM60FBbu-105">
          <mxGeometry width="30" height="30" as="geometry">
            <mxRectangle width="30" height="30" as="alternateBounds" />
          </mxGeometry>
        </mxCell>
        <mxCell id="pnxO0p76b-OSnM60FBbu-107" value="name" style="shape=partialRectangle;connectable=0;fillColor=none;top=0;left=0;bottom=0;right=0;align=left;spacingLeft=6;overflow=hidden;" vertex="1" parent="pnxO0p76b-OSnM60FBbu-105">
          <mxGeometry x="30" width="201.00000000000003" height="30" as="geometry">
            <mxRectangle width="201.00000000000003" height="30" as="alternateBounds" />
          </mxGeometry>
        </mxCell>
        <mxCell id="pnxO0p76b-OSnM60FBbu-108" value="string" style="shape=partialRectangle;connectable=0;fillColor=none;top=0;left=0;bottom=0;right=0;align=left;spacingLeft=6;overflow=hidden;" vertex="1" parent="pnxO0p76b-OSnM60FBbu-105">
          <mxGeometry x="231.00000000000003" width="119.99999999999997" height="30" as="geometry">
            <mxRectangle width="119.99999999999997" height="30" as="alternateBounds" />
          </mxGeometry>
        </mxCell>
        <mxCell id="pnxO0p76b-OSnM60FBbu-109" style="shape=partialRectangle;collapsible=0;dropTarget=0;pointerEvents=0;fillColor=none;top=0;left=0;bottom=0;right=0;points=[[0,0.5],[1,0.5]];portConstraint=eastwest;" vertex="1" parent="pnxO0p76b-OSnM60FBbu-100">
          <mxGeometry y="90" width="351" height="30" as="geometry" />
        </mxCell>
        <mxCell id="pnxO0p76b-OSnM60FBbu-110" style="shape=partialRectangle;connectable=0;fillColor=none;top=0;left=0;bottom=0;right=0;editable=1;overflow=hidden;" vertex="1" parent="pnxO0p76b-OSnM60FBbu-109">
          <mxGeometry width="30" height="30" as="geometry">
            <mxRectangle width="30" height="30" as="alternateBounds" />
          </mxGeometry>
        </mxCell>
        <mxCell id="pnxO0p76b-OSnM60FBbu-111" value="email" style="shape=partialRectangle;connectable=0;fillColor=none;top=0;left=0;bottom=0;right=0;align=left;spacingLeft=6;overflow=hidden;" vertex="1" parent="pnxO0p76b-OSnM60FBbu-109">
          <mxGeometry x="30" width="201.00000000000003" height="30" as="geometry">
            <mxRectangle width="201.00000000000003" height="30" as="alternateBounds" />
          </mxGeometry>
        </mxCell>
        <mxCell id="pnxO0p76b-OSnM60FBbu-112" value="string" style="shape=partialRectangle;connectable=0;fillColor=none;top=0;left=0;bottom=0;right=0;align=left;spacingLeft=6;overflow=hidden;" vertex="1" parent="pnxO0p76b-OSnM60FBbu-109">
          <mxGeometry x="231.00000000000003" width="119.99999999999997" height="30" as="geometry">
            <mxRectangle width="119.99999999999997" height="30" as="alternateBounds" />
          </mxGeometry>
        </mxCell>
        <mxCell id="pnxO0p76b-OSnM60FBbu-113" style="shape=partialRectangle;collapsible=0;dropTarget=0;pointerEvents=0;fillColor=none;top=0;left=0;bottom=0;right=0;points=[[0,0.5],[1,0.5]];portConstraint=eastwest;" vertex="1" parent="pnxO0p76b-OSnM60FBbu-100">
          <mxGeometry y="120" width="351" height="30" as="geometry" />
        </mxCell>
        <mxCell id="pnxO0p76b-OSnM60FBbu-114" style="shape=partialRectangle;connectable=0;fillColor=none;top=0;left=0;bottom=0;right=0;editable=1;overflow=hidden;" vertex="1" parent="pnxO0p76b-OSnM60FBbu-113">
          <mxGeometry width="30" height="30" as="geometry">
            <mxRectangle width="30" height="30" as="alternateBounds" />
          </mxGeometry>
        </mxCell>
        <mxCell id="pnxO0p76b-OSnM60FBbu-115" value="crypted_password" style="shape=partialRectangle;connectable=0;fillColor=none;top=0;left=0;bottom=0;right=0;align=left;spacingLeft=6;overflow=hidden;" vertex="1" parent="pnxO0p76b-OSnM60FBbu-113">
          <mxGeometry x="30" width="201.00000000000003" height="30" as="geometry">
            <mxRectangle width="201.00000000000003" height="30" as="alternateBounds" />
          </mxGeometry>
        </mxCell>
        <mxCell id="pnxO0p76b-OSnM60FBbu-116" value="string" style="shape=partialRectangle;connectable=0;fillColor=none;top=0;left=0;bottom=0;right=0;align=left;spacingLeft=6;overflow=hidden;" vertex="1" parent="pnxO0p76b-OSnM60FBbu-113">
          <mxGeometry x="231.00000000000003" width="119.99999999999997" height="30" as="geometry">
            <mxRectangle width="119.99999999999997" height="30" as="alternateBounds" />
          </mxGeometry>
        </mxCell>
        <mxCell id="pnxO0p76b-OSnM60FBbu-117" style="shape=partialRectangle;collapsible=0;dropTarget=0;pointerEvents=0;fillColor=none;top=0;left=0;bottom=0;right=0;points=[[0,0.5],[1,0.5]];portConstraint=eastwest;" vertex="1" parent="pnxO0p76b-OSnM60FBbu-100">
          <mxGeometry y="150" width="351" height="30" as="geometry" />
        </mxCell>
        <mxCell id="pnxO0p76b-OSnM60FBbu-118" style="shape=partialRectangle;connectable=0;fillColor=none;top=0;left=0;bottom=0;right=0;editable=1;overflow=hidden;" vertex="1" parent="pnxO0p76b-OSnM60FBbu-117">
          <mxGeometry width="30" height="30" as="geometry">
            <mxRectangle width="30" height="30" as="alternateBounds" />
          </mxGeometry>
        </mxCell>
        <mxCell id="pnxO0p76b-OSnM60FBbu-119" value="salt" style="shape=partialRectangle;connectable=0;fillColor=none;top=0;left=0;bottom=0;right=0;align=left;spacingLeft=6;overflow=hidden;" vertex="1" parent="pnxO0p76b-OSnM60FBbu-117">
          <mxGeometry x="30" width="201.00000000000003" height="30" as="geometry">
            <mxRectangle width="201.00000000000003" height="30" as="alternateBounds" />
          </mxGeometry>
        </mxCell>
        <mxCell id="pnxO0p76b-OSnM60FBbu-120" value="string" style="shape=partialRectangle;connectable=0;fillColor=none;top=0;left=0;bottom=0;right=0;align=left;spacingLeft=6;overflow=hidden;" vertex="1" parent="pnxO0p76b-OSnM60FBbu-117">
          <mxGeometry x="231.00000000000003" width="119.99999999999997" height="30" as="geometry">
            <mxRectangle width="119.99999999999997" height="30" as="alternateBounds" />
          </mxGeometry>
        </mxCell>
        <mxCell id="pnxO0p76b-OSnM60FBbu-137" style="shape=partialRectangle;collapsible=0;dropTarget=0;pointerEvents=0;fillColor=none;top=0;left=0;bottom=0;right=0;points=[[0,0.5],[1,0.5]];portConstraint=eastwest;" vertex="1" parent="pnxO0p76b-OSnM60FBbu-100">
          <mxGeometry y="180" width="351" height="30" as="geometry" />
        </mxCell>
        <mxCell id="pnxO0p76b-OSnM60FBbu-138" style="shape=partialRectangle;connectable=0;fillColor=none;top=0;left=0;bottom=0;right=0;editable=1;overflow=hidden;" vertex="1" parent="pnxO0p76b-OSnM60FBbu-137">
          <mxGeometry width="30" height="30" as="geometry">
            <mxRectangle width="30" height="30" as="alternateBounds" />
          </mxGeometry>
        </mxCell>
        <mxCell id="pnxO0p76b-OSnM60FBbu-139" value="role&#xa;（general: 0, admin: 1）" style="shape=partialRectangle;connectable=0;fillColor=none;top=0;left=0;bottom=0;right=0;align=left;spacingLeft=6;overflow=hidden;" vertex="1" parent="pnxO0p76b-OSnM60FBbu-137">
          <mxGeometry x="30" width="201.00000000000003" height="30" as="geometry">
            <mxRectangle width="201.00000000000003" height="30" as="alternateBounds" />
          </mxGeometry>
        </mxCell>
        <mxCell id="pnxO0p76b-OSnM60FBbu-140" value="integer（enum使用）" style="shape=partialRectangle;connectable=0;fillColor=none;top=0;left=0;bottom=0;right=0;align=left;spacingLeft=6;overflow=hidden;" vertex="1" parent="pnxO0p76b-OSnM60FBbu-137">
          <mxGeometry x="231.00000000000003" width="119.99999999999997" height="30" as="geometry">
            <mxRectangle width="119.99999999999997" height="30" as="alternateBounds" />
          </mxGeometry>
        </mxCell>
        <mxCell id="pnxO0p76b-OSnM60FBbu-206" style="shape=partialRectangle;collapsible=0;dropTarget=0;pointerEvents=0;fillColor=none;top=0;left=0;bottom=0;right=0;points=[[0,0.5],[1,0.5]];portConstraint=eastwest;" vertex="1" parent="pnxO0p76b-OSnM60FBbu-100">
          <mxGeometry y="210" width="351" height="30" as="geometry" />
        </mxCell>
        <mxCell id="pnxO0p76b-OSnM60FBbu-207" style="shape=partialRectangle;connectable=0;fillColor=none;top=0;left=0;bottom=0;right=0;editable=1;overflow=hidden;" vertex="1" parent="pnxO0p76b-OSnM60FBbu-206">
          <mxGeometry width="30" height="30" as="geometry">
            <mxRectangle width="30" height="30" as="alternateBounds" />
          </mxGeometry>
        </mxCell>
        <mxCell id="pnxO0p76b-OSnM60FBbu-208" value="offense_win_count" style="shape=partialRectangle;connectable=0;fillColor=none;top=0;left=0;bottom=0;right=0;align=left;spacingLeft=6;overflow=hidden;" vertex="1" parent="pnxO0p76b-OSnM60FBbu-206">
          <mxGeometry x="30" width="201.00000000000003" height="30" as="geometry">
            <mxRectangle width="201.00000000000003" height="30" as="alternateBounds" />
          </mxGeometry>
        </mxCell>
        <mxCell id="pnxO0p76b-OSnM60FBbu-209" value="integer" style="shape=partialRectangle;connectable=0;fillColor=none;top=0;left=0;bottom=0;right=0;align=left;spacingLeft=6;overflow=hidden;" vertex="1" parent="pnxO0p76b-OSnM60FBbu-206">
          <mxGeometry x="231.00000000000003" width="119.99999999999997" height="30" as="geometry">
            <mxRectangle width="119.99999999999997" height="30" as="alternateBounds" />
          </mxGeometry>
        </mxCell>
        <mxCell id="pnxO0p76b-OSnM60FBbu-153" value="GlaringFacePhotos" style="shape=table;startSize=30;container=1;collapsible=1;childLayout=tableLayout;fixedRows=1;rowLines=0;fontStyle=1;align=center;resizeLast=1;" vertex="1" parent="1">
          <mxGeometry x="431" y="250" width="351" height="220" as="geometry" />
        </mxCell>
        <mxCell id="pnxO0p76b-OSnM60FBbu-154" value="" style="shape=partialRectangle;collapsible=0;dropTarget=0;pointerEvents=0;fillColor=none;top=0;left=0;bottom=1;right=0;points=[[0,0.5],[1,0.5]];portConstraint=eastwest;" vertex="1" parent="pnxO0p76b-OSnM60FBbu-153">
          <mxGeometry y="30" width="351" height="30" as="geometry" />
        </mxCell>
        <mxCell id="pnxO0p76b-OSnM60FBbu-155" value="PK" style="shape=partialRectangle;connectable=0;fillColor=none;top=0;left=0;bottom=0;right=0;fontStyle=1;overflow=hidden;" vertex="1" parent="pnxO0p76b-OSnM60FBbu-154">
          <mxGeometry width="30" height="30" as="geometry">
            <mxRectangle width="30" height="30" as="alternateBounds" />
          </mxGeometry>
        </mxCell>
        <mxCell id="pnxO0p76b-OSnM60FBbu-156" value="ID" style="shape=partialRectangle;connectable=0;fillColor=none;top=0;left=0;bottom=0;right=0;align=left;spacingLeft=6;fontStyle=5;overflow=hidden;" vertex="1" parent="pnxO0p76b-OSnM60FBbu-154">
          <mxGeometry x="30" width="201" height="30" as="geometry">
            <mxRectangle width="201" height="30" as="alternateBounds" />
          </mxGeometry>
        </mxCell>
        <mxCell id="pnxO0p76b-OSnM60FBbu-157" value="uuid" style="shape=partialRectangle;connectable=0;fillColor=none;top=0;left=0;bottom=0;right=0;align=left;spacingLeft=6;fontStyle=5;overflow=hidden;" vertex="1" parent="pnxO0p76b-OSnM60FBbu-154">
          <mxGeometry x="231" width="120" height="30" as="geometry">
            <mxRectangle width="120" height="30" as="alternateBounds" />
          </mxGeometry>
        </mxCell>
        <mxCell id="pnxO0p76b-OSnM60FBbu-158" style="shape=partialRectangle;collapsible=0;dropTarget=0;pointerEvents=0;fillColor=none;top=0;left=0;bottom=0;right=0;points=[[0,0.5],[1,0.5]];portConstraint=eastwest;" vertex="1" parent="pnxO0p76b-OSnM60FBbu-153">
          <mxGeometry y="60" width="351" height="30" as="geometry" />
        </mxCell>
        <mxCell id="pnxO0p76b-OSnM60FBbu-159" value="FK" style="shape=partialRectangle;connectable=0;fillColor=none;top=0;left=0;bottom=0;right=0;editable=1;overflow=hidden;" vertex="1" parent="pnxO0p76b-OSnM60FBbu-158">
          <mxGeometry width="30" height="30" as="geometry">
            <mxRectangle width="30" height="30" as="alternateBounds" />
          </mxGeometry>
        </mxCell>
        <mxCell id="pnxO0p76b-OSnM60FBbu-160" value="user_id" style="shape=partialRectangle;connectable=0;fillColor=none;top=0;left=0;bottom=0;right=0;align=left;spacingLeft=6;overflow=hidden;" vertex="1" parent="pnxO0p76b-OSnM60FBbu-158">
          <mxGeometry x="30" width="201" height="30" as="geometry">
            <mxRectangle width="201" height="30" as="alternateBounds" />
          </mxGeometry>
        </mxCell>
        <mxCell id="pnxO0p76b-OSnM60FBbu-161" value="uuid" style="shape=partialRectangle;connectable=0;fillColor=none;top=0;left=0;bottom=0;right=0;align=left;spacingLeft=6;overflow=hidden;" vertex="1" parent="pnxO0p76b-OSnM60FBbu-158">
          <mxGeometry x="231" width="120" height="30" as="geometry">
            <mxRectangle width="120" height="30" as="alternateBounds" />
          </mxGeometry>
        </mxCell>
        <mxCell id="pnxO0p76b-OSnM60FBbu-162" value="" style="shape=partialRectangle;collapsible=0;dropTarget=0;pointerEvents=0;fillColor=none;top=0;left=0;bottom=0;right=0;points=[[0,0.5],[1,0.5]];portConstraint=eastwest;" vertex="1" parent="pnxO0p76b-OSnM60FBbu-153">
          <mxGeometry y="90" width="351" height="30" as="geometry" />
        </mxCell>
        <mxCell id="pnxO0p76b-OSnM60FBbu-163" value="" style="shape=partialRectangle;connectable=0;fillColor=none;top=0;left=0;bottom=0;right=0;editable=1;overflow=hidden;" vertex="1" parent="pnxO0p76b-OSnM60FBbu-162">
          <mxGeometry width="30" height="30" as="geometry">
            <mxRectangle width="30" height="30" as="alternateBounds" />
          </mxGeometry>
        </mxCell>
        <mxCell id="pnxO0p76b-OSnM60FBbu-164" value="image" style="shape=partialRectangle;connectable=0;fillColor=none;top=0;left=0;bottom=0;right=0;align=left;spacingLeft=6;overflow=hidden;" vertex="1" parent="pnxO0p76b-OSnM60FBbu-162">
          <mxGeometry x="30" width="201" height="30" as="geometry">
            <mxRectangle width="201" height="30" as="alternateBounds" />
          </mxGeometry>
        </mxCell>
        <mxCell id="pnxO0p76b-OSnM60FBbu-165" value="string" style="shape=partialRectangle;connectable=0;fillColor=none;top=0;left=0;bottom=0;right=0;align=left;spacingLeft=6;overflow=hidden;" vertex="1" parent="pnxO0p76b-OSnM60FBbu-162">
          <mxGeometry x="231" width="120" height="30" as="geometry">
            <mxRectangle width="120" height="30" as="alternateBounds" />
          </mxGeometry>
        </mxCell>
        <mxCell id="pnxO0p76b-OSnM60FBbu-170" value="" style="shape=partialRectangle;collapsible=0;dropTarget=0;pointerEvents=0;fillColor=none;top=0;left=0;bottom=0;right=0;points=[[0,0.5],[1,0.5]];portConstraint=eastwest;" vertex="1" parent="pnxO0p76b-OSnM60FBbu-153">
          <mxGeometry y="120" width="351" height="30" as="geometry" />
        </mxCell>
        <mxCell id="pnxO0p76b-OSnM60FBbu-171" value="" style="shape=partialRectangle;connectable=0;fillColor=none;top=0;left=0;bottom=0;right=0;editable=1;overflow=hidden;" vertex="1" parent="pnxO0p76b-OSnM60FBbu-170">
          <mxGeometry width="30" height="30" as="geometry">
            <mxRectangle width="30" height="30" as="alternateBounds" />
          </mxGeometry>
        </mxCell>
        <mxCell id="pnxO0p76b-OSnM60FBbu-172" value="face_score" style="shape=partialRectangle;connectable=0;fillColor=none;top=0;left=0;bottom=0;right=0;align=left;spacingLeft=6;overflow=hidden;" vertex="1" parent="pnxO0p76b-OSnM60FBbu-170">
          <mxGeometry x="30" width="201" height="30" as="geometry">
            <mxRectangle width="201" height="30" as="alternateBounds" />
          </mxGeometry>
        </mxCell>
        <mxCell id="pnxO0p76b-OSnM60FBbu-173" value="integer" style="shape=partialRectangle;connectable=0;fillColor=none;top=0;left=0;bottom=0;right=0;align=left;spacingLeft=6;overflow=hidden;" vertex="1" parent="pnxO0p76b-OSnM60FBbu-170">
          <mxGeometry x="231" width="120" height="30" as="geometry">
            <mxRectangle width="120" height="30" as="alternateBounds" />
          </mxGeometry>
        </mxCell>
        <mxCell id="pnxO0p76b-OSnM60FBbu-182" style="shape=partialRectangle;collapsible=0;dropTarget=0;pointerEvents=0;fillColor=none;top=0;left=0;bottom=0;right=0;points=[[0,0.5],[1,0.5]];portConstraint=eastwest;" vertex="1" parent="pnxO0p76b-OSnM60FBbu-153">
          <mxGeometry y="150" width="351" height="30" as="geometry" />
        </mxCell>
        <mxCell id="pnxO0p76b-OSnM60FBbu-183" style="shape=partialRectangle;connectable=0;fillColor=none;top=0;left=0;bottom=0;right=0;editable=1;overflow=hidden;" vertex="1" parent="pnxO0p76b-OSnM60FBbu-182">
          <mxGeometry width="30" height="30" as="geometry">
            <mxRectangle width="30" height="30" as="alternateBounds" />
          </mxGeometry>
        </mxCell>
        <mxCell id="pnxO0p76b-OSnM60FBbu-184" value="defense_win_count" style="shape=partialRectangle;connectable=0;fillColor=none;top=0;left=0;bottom=0;right=0;align=left;spacingLeft=6;overflow=hidden;" vertex="1" parent="pnxO0p76b-OSnM60FBbu-182">
          <mxGeometry x="30" width="201" height="30" as="geometry">
            <mxRectangle width="201" height="30" as="alternateBounds" />
          </mxGeometry>
        </mxCell>
        <mxCell id="pnxO0p76b-OSnM60FBbu-185" value="integer" style="shape=partialRectangle;connectable=0;fillColor=none;top=0;left=0;bottom=0;right=0;align=left;spacingLeft=6;overflow=hidden;" vertex="1" parent="pnxO0p76b-OSnM60FBbu-182">
          <mxGeometry x="231" width="120" height="30" as="geometry">
            <mxRectangle width="120" height="30" as="alternateBounds" />
          </mxGeometry>
        </mxCell>
        <mxCell id="pnxO0p76b-OSnM60FBbu-202" style="shape=partialRectangle;collapsible=0;dropTarget=0;pointerEvents=0;fillColor=none;top=0;left=0;bottom=0;right=0;points=[[0,0.5],[1,0.5]];portConstraint=eastwest;" vertex="1" parent="pnxO0p76b-OSnM60FBbu-153">
          <mxGeometry y="180" width="351" height="30" as="geometry" />
        </mxCell>
        <mxCell id="pnxO0p76b-OSnM60FBbu-203" style="shape=partialRectangle;connectable=0;fillColor=none;top=0;left=0;bottom=0;right=0;editable=1;overflow=hidden;" vertex="1" parent="pnxO0p76b-OSnM60FBbu-202">
          <mxGeometry width="30" height="30" as="geometry">
            <mxRectangle width="30" height="30" as="alternateBounds" />
          </mxGeometry>
        </mxCell>
        <mxCell id="pnxO0p76b-OSnM60FBbu-204" value="main_choiced" style="shape=partialRectangle;connectable=0;fillColor=none;top=0;left=0;bottom=0;right=0;align=left;spacingLeft=6;overflow=hidden;" vertex="1" parent="pnxO0p76b-OSnM60FBbu-202">
          <mxGeometry x="30" width="201" height="30" as="geometry">
            <mxRectangle width="201" height="30" as="alternateBounds" />
          </mxGeometry>
        </mxCell>
        <mxCell id="pnxO0p76b-OSnM60FBbu-205" value="boolean" style="shape=partialRectangle;connectable=0;fillColor=none;top=0;left=0;bottom=0;right=0;align=left;spacingLeft=6;overflow=hidden;" vertex="1" parent="pnxO0p76b-OSnM60FBbu-202">
          <mxGeometry x="231" width="120" height="30" as="geometry">
            <mxRectangle width="120" height="30" as="alternateBounds" />
          </mxGeometry>
        </mxCell>
        <mxCell id="pnxO0p76b-OSnM60FBbu-186" value="Beats" style="shape=table;startSize=20;container=1;collapsible=1;childLayout=tableLayout;fixedRows=1;rowLines=0;fontStyle=1;align=center;resizeLast=1;" vertex="1" parent="1">
          <mxGeometry x="431" y="80" width="351" height="130" as="geometry" />
        </mxCell>
        <mxCell id="pnxO0p76b-OSnM60FBbu-187" value="" style="shape=partialRectangle;collapsible=0;dropTarget=0;pointerEvents=0;fillColor=none;top=0;left=0;bottom=1;right=0;points=[[0,0.5],[1,0.5]];portConstraint=eastwest;" vertex="1" parent="pnxO0p76b-OSnM60FBbu-186">
          <mxGeometry y="20" width="351" height="30" as="geometry" />
        </mxCell>
        <mxCell id="pnxO0p76b-OSnM60FBbu-188" value="PK" style="shape=partialRectangle;connectable=0;fillColor=none;top=0;left=0;bottom=0;right=0;fontStyle=1;overflow=hidden;" vertex="1" parent="pnxO0p76b-OSnM60FBbu-187">
          <mxGeometry width="30" height="30" as="geometry">
            <mxRectangle width="30" height="30" as="alternateBounds" />
          </mxGeometry>
        </mxCell>
        <mxCell id="pnxO0p76b-OSnM60FBbu-189" value="ID" style="shape=partialRectangle;connectable=0;fillColor=none;top=0;left=0;bottom=0;right=0;align=left;spacingLeft=6;fontStyle=5;overflow=hidden;" vertex="1" parent="pnxO0p76b-OSnM60FBbu-187">
          <mxGeometry x="30" width="201" height="30" as="geometry">
            <mxRectangle width="201" height="30" as="alternateBounds" />
          </mxGeometry>
        </mxCell>
        <mxCell id="pnxO0p76b-OSnM60FBbu-190" value="uuid" style="shape=partialRectangle;connectable=0;fillColor=none;top=0;left=0;bottom=0;right=0;align=left;spacingLeft=6;fontStyle=5;overflow=hidden;" vertex="1" parent="pnxO0p76b-OSnM60FBbu-187">
          <mxGeometry x="231" width="120" height="30" as="geometry">
            <mxRectangle width="120" height="30" as="alternateBounds" />
          </mxGeometry>
        </mxCell>
        <mxCell id="pnxO0p76b-OSnM60FBbu-191" value="" style="shape=partialRectangle;collapsible=0;dropTarget=0;pointerEvents=0;fillColor=none;top=0;left=0;bottom=0;right=0;points=[[0,0.5],[1,0.5]];portConstraint=eastwest;" vertex="1" parent="pnxO0p76b-OSnM60FBbu-186">
          <mxGeometry y="50" width="351" height="30" as="geometry" />
        </mxCell>
        <mxCell id="pnxO0p76b-OSnM60FBbu-192" value="FK" style="shape=partialRectangle;connectable=0;fillColor=none;top=0;left=0;bottom=0;right=0;editable=1;overflow=hidden;" vertex="1" parent="pnxO0p76b-OSnM60FBbu-191">
          <mxGeometry width="30" height="30" as="geometry">
            <mxRectangle width="30" height="30" as="alternateBounds" />
          </mxGeometry>
        </mxCell>
        <mxCell id="pnxO0p76b-OSnM60FBbu-193" value="user_id" style="shape=partialRectangle;connectable=0;fillColor=none;top=0;left=0;bottom=0;right=0;align=left;spacingLeft=6;overflow=hidden;" vertex="1" parent="pnxO0p76b-OSnM60FBbu-191">
          <mxGeometry x="30" width="201" height="30" as="geometry">
            <mxRectangle width="201" height="30" as="alternateBounds" />
          </mxGeometry>
        </mxCell>
        <mxCell id="pnxO0p76b-OSnM60FBbu-194" value="uuid" style="shape=partialRectangle;connectable=0;fillColor=none;top=0;left=0;bottom=0;right=0;align=left;spacingLeft=6;overflow=hidden;" vertex="1" parent="pnxO0p76b-OSnM60FBbu-191">
          <mxGeometry x="231" width="120" height="30" as="geometry">
            <mxRectangle width="120" height="30" as="alternateBounds" />
          </mxGeometry>
        </mxCell>
        <mxCell id="pnxO0p76b-OSnM60FBbu-195" value="" style="shape=partialRectangle;collapsible=0;dropTarget=0;pointerEvents=0;fillColor=none;top=0;left=0;bottom=0;right=0;points=[[0,0.5],[1,0.5]];portConstraint=eastwest;" vertex="1" parent="pnxO0p76b-OSnM60FBbu-186">
          <mxGeometry y="80" width="351" height="30" as="geometry" />
        </mxCell>
        <mxCell id="pnxO0p76b-OSnM60FBbu-196" value="FK" style="shape=partialRectangle;connectable=0;fillColor=none;top=0;left=0;bottom=0;right=0;editable=1;overflow=hidden;" vertex="1" parent="pnxO0p76b-OSnM60FBbu-195">
          <mxGeometry width="30" height="30" as="geometry">
            <mxRectangle width="30" height="30" as="alternateBounds" />
          </mxGeometry>
        </mxCell>
        <mxCell id="pnxO0p76b-OSnM60FBbu-197" value="glaring_face_photo_id" style="shape=partialRectangle;connectable=0;fillColor=none;top=0;left=0;bottom=0;right=0;align=left;spacingLeft=6;overflow=hidden;" vertex="1" parent="pnxO0p76b-OSnM60FBbu-195">
          <mxGeometry x="30" width="201" height="30" as="geometry">
            <mxRectangle width="201" height="30" as="alternateBounds" />
          </mxGeometry>
        </mxCell>
        <mxCell id="pnxO0p76b-OSnM60FBbu-198" value="uuid" style="shape=partialRectangle;connectable=0;fillColor=none;top=0;left=0;bottom=0;right=0;align=left;spacingLeft=6;overflow=hidden;" vertex="1" parent="pnxO0p76b-OSnM60FBbu-195">
          <mxGeometry x="231" width="120" height="30" as="geometry">
            <mxRectangle width="120" height="30" as="alternateBounds" />
          </mxGeometry>
        </mxCell>
        <mxCell id="pnxO0p76b-OSnM60FBbu-199" value="" style="edgeStyle=entityRelationEdgeStyle;fontSize=12;html=1;endArrow=ERmany;exitX=1;exitY=0.5;exitDx=0;exitDy=0;entryX=0;entryY=0.5;entryDx=0;entryDy=0;" edge="1" parent="1" source="pnxO0p76b-OSnM60FBbu-101" target="pnxO0p76b-OSnM60FBbu-191">
          <mxGeometry width="100" height="100" relative="1" as="geometry">
            <mxPoint x="382" y="140" as="sourcePoint" />
            <mxPoint x="482" y="40" as="targetPoint" />
          </mxGeometry>
        </mxCell>
        <mxCell id="pnxO0p76b-OSnM60FBbu-200" value="" style="edgeStyle=entityRelationEdgeStyle;fontSize=12;html=1;endArrow=ERmany;exitX=1;exitY=0.5;exitDx=0;exitDy=0;entryX=0;entryY=0.5;entryDx=0;entryDy=0;" edge="1" parent="1" source="pnxO0p76b-OSnM60FBbu-105" target="pnxO0p76b-OSnM60FBbu-158">
          <mxGeometry width="100" height="100" relative="1" as="geometry">
            <mxPoint x="380.9999999999998" y="155" as="sourcePoint" />
            <mxPoint x="441" y="155" as="targetPoint" />
          </mxGeometry>
        </mxCell>
        <mxCell id="pnxO0p76b-OSnM60FBbu-201" value="" style="edgeStyle=entityRelationEdgeStyle;fontSize=12;html=1;endArrow=ERmany;entryX=1;entryY=0.5;entryDx=0;entryDy=0;" edge="1" parent="1" source="pnxO0p76b-OSnM60FBbu-154" target="pnxO0p76b-OSnM60FBbu-195">
          <mxGeometry width="100" height="100" relative="1" as="geometry">
            <mxPoint x="400.9999999999998" y="155" as="sourcePoint" />
            <mxPoint x="461" y="335" as="targetPoint" />
          </mxGeometry>
        </mxCell>
      </root>
    </mxGraphModel>
  </diagram>
  <diagram name="Page-1のコピー" id="Jk9Huo-g__KmvcwLT2s9">
    <mxGraphModel dx="946" dy="589" grid="1" gridSize="10" guides="1" tooltips="1" connect="1" arrows="1" fold="1" page="1" pageScale="1" pageWidth="827" pageHeight="1169" math="0" shadow="0">
      <root>
        <mxCell id="IY2qTd2_Xe75jXKFmGi5-0" />
        <mxCell id="IY2qTd2_Xe75jXKFmGi5-1" parent="IY2qTd2_Xe75jXKFmGi5-0" />
        <mxCell id="IY2qTd2_Xe75jXKFmGi5-2" value="Users" style="shape=table;startSize=30;container=1;collapsible=1;childLayout=tableLayout;fixedRows=1;rowLines=0;fontStyle=1;align=center;resizeLast=1;" vertex="1" parent="IY2qTd2_Xe75jXKFmGi5-1">
          <mxGeometry x="20" y="100" width="351" height="250" as="geometry" />
        </mxCell>
        <mxCell id="IY2qTd2_Xe75jXKFmGi5-3" value="" style="shape=partialRectangle;collapsible=0;dropTarget=0;pointerEvents=0;fillColor=none;top=0;left=0;bottom=1;right=0;points=[[0,0.5],[1,0.5]];portConstraint=eastwest;" vertex="1" parent="IY2qTd2_Xe75jXKFmGi5-2">
          <mxGeometry y="30" width="351" height="30" as="geometry" />
        </mxCell>
        <mxCell id="IY2qTd2_Xe75jXKFmGi5-4" value="PK" style="shape=partialRectangle;connectable=0;fillColor=none;top=0;left=0;bottom=0;right=0;fontStyle=1;overflow=hidden;" vertex="1" parent="IY2qTd2_Xe75jXKFmGi5-3">
          <mxGeometry width="30" height="30" as="geometry">
            <mxRectangle width="30" height="30" as="alternateBounds" />
          </mxGeometry>
        </mxCell>
        <mxCell id="IY2qTd2_Xe75jXKFmGi5-5" value="ID" style="shape=partialRectangle;connectable=0;fillColor=none;top=0;left=0;bottom=0;right=0;align=left;spacingLeft=6;fontStyle=5;overflow=hidden;" vertex="1" parent="IY2qTd2_Xe75jXKFmGi5-3">
          <mxGeometry x="30" width="201.00000000000003" height="30" as="geometry">
            <mxRectangle width="201.00000000000003" height="30" as="alternateBounds" />
          </mxGeometry>
        </mxCell>
        <mxCell id="IY2qTd2_Xe75jXKFmGi5-6" value="uuid" style="shape=partialRectangle;connectable=0;fillColor=none;top=0;left=0;bottom=0;right=0;align=left;spacingLeft=6;fontStyle=5;overflow=hidden;" vertex="1" parent="IY2qTd2_Xe75jXKFmGi5-3">
          <mxGeometry x="231.00000000000003" width="119.99999999999997" height="30" as="geometry">
            <mxRectangle width="119.99999999999997" height="30" as="alternateBounds" />
          </mxGeometry>
        </mxCell>
        <mxCell id="IY2qTd2_Xe75jXKFmGi5-7" value="" style="shape=partialRectangle;collapsible=0;dropTarget=0;pointerEvents=0;fillColor=none;top=0;left=0;bottom=0;right=0;points=[[0,0.5],[1,0.5]];portConstraint=eastwest;" vertex="1" parent="IY2qTd2_Xe75jXKFmGi5-2">
          <mxGeometry y="60" width="351" height="30" as="geometry" />
        </mxCell>
        <mxCell id="IY2qTd2_Xe75jXKFmGi5-8" value="" style="shape=partialRectangle;connectable=0;fillColor=none;top=0;left=0;bottom=0;right=0;editable=1;overflow=hidden;" vertex="1" parent="IY2qTd2_Xe75jXKFmGi5-7">
          <mxGeometry width="30" height="30" as="geometry">
            <mxRectangle width="30" height="30" as="alternateBounds" />
          </mxGeometry>
        </mxCell>
        <mxCell id="IY2qTd2_Xe75jXKFmGi5-9" value="name" style="shape=partialRectangle;connectable=0;fillColor=none;top=0;left=0;bottom=0;right=0;align=left;spacingLeft=6;overflow=hidden;" vertex="1" parent="IY2qTd2_Xe75jXKFmGi5-7">
          <mxGeometry x="30" width="201.00000000000003" height="30" as="geometry">
            <mxRectangle width="201.00000000000003" height="30" as="alternateBounds" />
          </mxGeometry>
        </mxCell>
        <mxCell id="IY2qTd2_Xe75jXKFmGi5-10" value="string" style="shape=partialRectangle;connectable=0;fillColor=none;top=0;left=0;bottom=0;right=0;align=left;spacingLeft=6;overflow=hidden;" vertex="1" parent="IY2qTd2_Xe75jXKFmGi5-7">
          <mxGeometry x="231.00000000000003" width="119.99999999999997" height="30" as="geometry">
            <mxRectangle width="119.99999999999997" height="30" as="alternateBounds" />
          </mxGeometry>
        </mxCell>
        <mxCell id="IY2qTd2_Xe75jXKFmGi5-11" style="shape=partialRectangle;collapsible=0;dropTarget=0;pointerEvents=0;fillColor=none;top=0;left=0;bottom=0;right=0;points=[[0,0.5],[1,0.5]];portConstraint=eastwest;" vertex="1" parent="IY2qTd2_Xe75jXKFmGi5-2">
          <mxGeometry y="90" width="351" height="30" as="geometry" />
        </mxCell>
        <mxCell id="IY2qTd2_Xe75jXKFmGi5-12" style="shape=partialRectangle;connectable=0;fillColor=none;top=0;left=0;bottom=0;right=0;editable=1;overflow=hidden;" vertex="1" parent="IY2qTd2_Xe75jXKFmGi5-11">
          <mxGeometry width="30" height="30" as="geometry">
            <mxRectangle width="30" height="30" as="alternateBounds" />
          </mxGeometry>
        </mxCell>
        <mxCell id="IY2qTd2_Xe75jXKFmGi5-13" value="email" style="shape=partialRectangle;connectable=0;fillColor=none;top=0;left=0;bottom=0;right=0;align=left;spacingLeft=6;overflow=hidden;" vertex="1" parent="IY2qTd2_Xe75jXKFmGi5-11">
          <mxGeometry x="30" width="201.00000000000003" height="30" as="geometry">
            <mxRectangle width="201.00000000000003" height="30" as="alternateBounds" />
          </mxGeometry>
        </mxCell>
        <mxCell id="IY2qTd2_Xe75jXKFmGi5-14" value="string" style="shape=partialRectangle;connectable=0;fillColor=none;top=0;left=0;bottom=0;right=0;align=left;spacingLeft=6;overflow=hidden;" vertex="1" parent="IY2qTd2_Xe75jXKFmGi5-11">
          <mxGeometry x="231.00000000000003" width="119.99999999999997" height="30" as="geometry">
            <mxRectangle width="119.99999999999997" height="30" as="alternateBounds" />
          </mxGeometry>
        </mxCell>
        <mxCell id="IY2qTd2_Xe75jXKFmGi5-15" style="shape=partialRectangle;collapsible=0;dropTarget=0;pointerEvents=0;fillColor=none;top=0;left=0;bottom=0;right=0;points=[[0,0.5],[1,0.5]];portConstraint=eastwest;" vertex="1" parent="IY2qTd2_Xe75jXKFmGi5-2">
          <mxGeometry y="120" width="351" height="30" as="geometry" />
        </mxCell>
        <mxCell id="IY2qTd2_Xe75jXKFmGi5-16" style="shape=partialRectangle;connectable=0;fillColor=none;top=0;left=0;bottom=0;right=0;editable=1;overflow=hidden;" vertex="1" parent="IY2qTd2_Xe75jXKFmGi5-15">
          <mxGeometry width="30" height="30" as="geometry">
            <mxRectangle width="30" height="30" as="alternateBounds" />
          </mxGeometry>
        </mxCell>
        <mxCell id="IY2qTd2_Xe75jXKFmGi5-17" value="crypted_password" style="shape=partialRectangle;connectable=0;fillColor=none;top=0;left=0;bottom=0;right=0;align=left;spacingLeft=6;overflow=hidden;" vertex="1" parent="IY2qTd2_Xe75jXKFmGi5-15">
          <mxGeometry x="30" width="201.00000000000003" height="30" as="geometry">
            <mxRectangle width="201.00000000000003" height="30" as="alternateBounds" />
          </mxGeometry>
        </mxCell>
        <mxCell id="IY2qTd2_Xe75jXKFmGi5-18" value="string" style="shape=partialRectangle;connectable=0;fillColor=none;top=0;left=0;bottom=0;right=0;align=left;spacingLeft=6;overflow=hidden;" vertex="1" parent="IY2qTd2_Xe75jXKFmGi5-15">
          <mxGeometry x="231.00000000000003" width="119.99999999999997" height="30" as="geometry">
            <mxRectangle width="119.99999999999997" height="30" as="alternateBounds" />
          </mxGeometry>
        </mxCell>
        <mxCell id="IY2qTd2_Xe75jXKFmGi5-19" style="shape=partialRectangle;collapsible=0;dropTarget=0;pointerEvents=0;fillColor=none;top=0;left=0;bottom=0;right=0;points=[[0,0.5],[1,0.5]];portConstraint=eastwest;" vertex="1" parent="IY2qTd2_Xe75jXKFmGi5-2">
          <mxGeometry y="150" width="351" height="30" as="geometry" />
        </mxCell>
        <mxCell id="IY2qTd2_Xe75jXKFmGi5-20" style="shape=partialRectangle;connectable=0;fillColor=none;top=0;left=0;bottom=0;right=0;editable=1;overflow=hidden;" vertex="1" parent="IY2qTd2_Xe75jXKFmGi5-19">
          <mxGeometry width="30" height="30" as="geometry">
            <mxRectangle width="30" height="30" as="alternateBounds" />
          </mxGeometry>
        </mxCell>
        <mxCell id="IY2qTd2_Xe75jXKFmGi5-21" value="salt" style="shape=partialRectangle;connectable=0;fillColor=none;top=0;left=0;bottom=0;right=0;align=left;spacingLeft=6;overflow=hidden;" vertex="1" parent="IY2qTd2_Xe75jXKFmGi5-19">
          <mxGeometry x="30" width="201.00000000000003" height="30" as="geometry">
            <mxRectangle width="201.00000000000003" height="30" as="alternateBounds" />
          </mxGeometry>
        </mxCell>
        <mxCell id="IY2qTd2_Xe75jXKFmGi5-22" value="string" style="shape=partialRectangle;connectable=0;fillColor=none;top=0;left=0;bottom=0;right=0;align=left;spacingLeft=6;overflow=hidden;" vertex="1" parent="IY2qTd2_Xe75jXKFmGi5-19">
          <mxGeometry x="231.00000000000003" width="119.99999999999997" height="30" as="geometry">
            <mxRectangle width="119.99999999999997" height="30" as="alternateBounds" />
          </mxGeometry>
        </mxCell>
        <mxCell id="IY2qTd2_Xe75jXKFmGi5-23" style="shape=partialRectangle;collapsible=0;dropTarget=0;pointerEvents=0;fillColor=none;top=0;left=0;bottom=0;right=0;points=[[0,0.5],[1,0.5]];portConstraint=eastwest;" vertex="1" parent="IY2qTd2_Xe75jXKFmGi5-2">
          <mxGeometry y="180" width="351" height="30" as="geometry" />
        </mxCell>
        <mxCell id="IY2qTd2_Xe75jXKFmGi5-24" style="shape=partialRectangle;connectable=0;fillColor=none;top=0;left=0;bottom=0;right=0;editable=1;overflow=hidden;" vertex="1" parent="IY2qTd2_Xe75jXKFmGi5-23">
          <mxGeometry width="30" height="30" as="geometry">
            <mxRectangle width="30" height="30" as="alternateBounds" />
          </mxGeometry>
        </mxCell>
        <mxCell id="IY2qTd2_Xe75jXKFmGi5-25" value="role（general: 0, admin: 1）" style="shape=partialRectangle;connectable=0;fillColor=none;top=0;left=0;bottom=0;right=0;align=left;spacingLeft=6;overflow=hidden;" vertex="1" parent="IY2qTd2_Xe75jXKFmGi5-23">
          <mxGeometry x="30" width="201.00000000000003" height="30" as="geometry">
            <mxRectangle width="201.00000000000003" height="30" as="alternateBounds" />
          </mxGeometry>
        </mxCell>
        <mxCell id="IY2qTd2_Xe75jXKFmGi5-26" value="integer（enum使用）" style="shape=partialRectangle;connectable=0;fillColor=none;top=0;left=0;bottom=0;right=0;align=left;spacingLeft=6;overflow=hidden;" vertex="1" parent="IY2qTd2_Xe75jXKFmGi5-23">
          <mxGeometry x="231.00000000000003" width="119.99999999999997" height="30" as="geometry">
            <mxRectangle width="119.99999999999997" height="30" as="alternateBounds" />
          </mxGeometry>
        </mxCell>
        <mxCell id="IY2qTd2_Xe75jXKFmGi5-27" style="shape=partialRectangle;collapsible=0;dropTarget=0;pointerEvents=0;fillColor=none;top=0;left=0;bottom=0;right=0;points=[[0,0.5],[1,0.5]];portConstraint=eastwest;" vertex="1" parent="IY2qTd2_Xe75jXKFmGi5-2">
          <mxGeometry y="210" width="351" height="30" as="geometry" />
        </mxCell>
        <mxCell id="IY2qTd2_Xe75jXKFmGi5-28" style="shape=partialRectangle;connectable=0;fillColor=none;top=0;left=0;bottom=0;right=0;editable=1;overflow=hidden;" vertex="1" parent="IY2qTd2_Xe75jXKFmGi5-27">
          <mxGeometry width="30" height="30" as="geometry">
            <mxRectangle width="30" height="30" as="alternateBounds" />
          </mxGeometry>
        </mxCell>
        <mxCell id="IY2qTd2_Xe75jXKFmGi5-29" value="offense_win_count" style="shape=partialRectangle;connectable=0;fillColor=none;top=0;left=0;bottom=0;right=0;align=left;spacingLeft=6;overflow=hidden;" vertex="1" parent="IY2qTd2_Xe75jXKFmGi5-27">
          <mxGeometry x="30" width="201.00000000000003" height="30" as="geometry">
            <mxRectangle width="201.00000000000003" height="30" as="alternateBounds" />
          </mxGeometry>
        </mxCell>
        <mxCell id="IY2qTd2_Xe75jXKFmGi5-30" value="integer" style="shape=partialRectangle;connectable=0;fillColor=none;top=0;left=0;bottom=0;right=0;align=left;spacingLeft=6;overflow=hidden;" vertex="1" parent="IY2qTd2_Xe75jXKFmGi5-27">
          <mxGeometry x="231.00000000000003" width="119.99999999999997" height="30" as="geometry">
            <mxRectangle width="119.99999999999997" height="30" as="alternateBounds" />
          </mxGeometry>
        </mxCell>
        <mxCell id="IY2qTd2_Xe75jXKFmGi5-31" value="GlaringFacePhotos" style="shape=table;startSize=30;container=1;collapsible=1;childLayout=tableLayout;fixedRows=1;rowLines=0;fontStyle=1;align=center;resizeLast=1;" vertex="1" parent="IY2qTd2_Xe75jXKFmGi5-1">
          <mxGeometry x="431" y="250" width="351" height="220" as="geometry" />
        </mxCell>
        <mxCell id="IY2qTd2_Xe75jXKFmGi5-32" value="" style="shape=partialRectangle;collapsible=0;dropTarget=0;pointerEvents=0;fillColor=none;top=0;left=0;bottom=1;right=0;points=[[0,0.5],[1,0.5]];portConstraint=eastwest;" vertex="1" parent="IY2qTd2_Xe75jXKFmGi5-31">
          <mxGeometry y="30" width="351" height="30" as="geometry" />
        </mxCell>
        <mxCell id="IY2qTd2_Xe75jXKFmGi5-33" value="PK" style="shape=partialRectangle;connectable=0;fillColor=none;top=0;left=0;bottom=0;right=0;fontStyle=1;overflow=hidden;" vertex="1" parent="IY2qTd2_Xe75jXKFmGi5-32">
          <mxGeometry width="30" height="30" as="geometry">
            <mxRectangle width="30" height="30" as="alternateBounds" />
          </mxGeometry>
        </mxCell>
        <mxCell id="IY2qTd2_Xe75jXKFmGi5-34" value="ID" style="shape=partialRectangle;connectable=0;fillColor=none;top=0;left=0;bottom=0;right=0;align=left;spacingLeft=6;fontStyle=5;overflow=hidden;" vertex="1" parent="IY2qTd2_Xe75jXKFmGi5-32">
          <mxGeometry x="30" width="201" height="30" as="geometry">
            <mxRectangle width="201" height="30" as="alternateBounds" />
          </mxGeometry>
        </mxCell>
        <mxCell id="IY2qTd2_Xe75jXKFmGi5-35" value="uuid" style="shape=partialRectangle;connectable=0;fillColor=none;top=0;left=0;bottom=0;right=0;align=left;spacingLeft=6;fontStyle=5;overflow=hidden;" vertex="1" parent="IY2qTd2_Xe75jXKFmGi5-32">
          <mxGeometry x="231" width="120" height="30" as="geometry">
            <mxRectangle width="120" height="30" as="alternateBounds" />
          </mxGeometry>
        </mxCell>
        <mxCell id="IY2qTd2_Xe75jXKFmGi5-36" style="shape=partialRectangle;collapsible=0;dropTarget=0;pointerEvents=0;fillColor=none;top=0;left=0;bottom=0;right=0;points=[[0,0.5],[1,0.5]];portConstraint=eastwest;" vertex="1" parent="IY2qTd2_Xe75jXKFmGi5-31">
          <mxGeometry y="60" width="351" height="30" as="geometry" />
        </mxCell>
        <mxCell id="IY2qTd2_Xe75jXKFmGi5-37" value="FK" style="shape=partialRectangle;connectable=0;fillColor=none;top=0;left=0;bottom=0;right=0;editable=1;overflow=hidden;" vertex="1" parent="IY2qTd2_Xe75jXKFmGi5-36">
          <mxGeometry width="30" height="30" as="geometry">
            <mxRectangle width="30" height="30" as="alternateBounds" />
          </mxGeometry>
        </mxCell>
        <mxCell id="IY2qTd2_Xe75jXKFmGi5-38" value="user_id" style="shape=partialRectangle;connectable=0;fillColor=none;top=0;left=0;bottom=0;right=0;align=left;spacingLeft=6;overflow=hidden;" vertex="1" parent="IY2qTd2_Xe75jXKFmGi5-36">
          <mxGeometry x="30" width="201" height="30" as="geometry">
            <mxRectangle width="201" height="30" as="alternateBounds" />
          </mxGeometry>
        </mxCell>
        <mxCell id="IY2qTd2_Xe75jXKFmGi5-39" value="uuid" style="shape=partialRectangle;connectable=0;fillColor=none;top=0;left=0;bottom=0;right=0;align=left;spacingLeft=6;overflow=hidden;" vertex="1" parent="IY2qTd2_Xe75jXKFmGi5-36">
          <mxGeometry x="231" width="120" height="30" as="geometry">
            <mxRectangle width="120" height="30" as="alternateBounds" />
          </mxGeometry>
        </mxCell>
        <mxCell id="IY2qTd2_Xe75jXKFmGi5-40" value="" style="shape=partialRectangle;collapsible=0;dropTarget=0;pointerEvents=0;fillColor=none;top=0;left=0;bottom=0;right=0;points=[[0,0.5],[1,0.5]];portConstraint=eastwest;" vertex="1" parent="IY2qTd2_Xe75jXKFmGi5-31">
          <mxGeometry y="90" width="351" height="30" as="geometry" />
        </mxCell>
        <mxCell id="IY2qTd2_Xe75jXKFmGi5-41" value="" style="shape=partialRectangle;connectable=0;fillColor=none;top=0;left=0;bottom=0;right=0;editable=1;overflow=hidden;" vertex="1" parent="IY2qTd2_Xe75jXKFmGi5-40">
          <mxGeometry width="30" height="30" as="geometry">
            <mxRectangle width="30" height="30" as="alternateBounds" />
          </mxGeometry>
        </mxCell>
        <mxCell id="IY2qTd2_Xe75jXKFmGi5-42" value="image" style="shape=partialRectangle;connectable=0;fillColor=none;top=0;left=0;bottom=0;right=0;align=left;spacingLeft=6;overflow=hidden;" vertex="1" parent="IY2qTd2_Xe75jXKFmGi5-40">
          <mxGeometry x="30" width="201" height="30" as="geometry">
            <mxRectangle width="201" height="30" as="alternateBounds" />
          </mxGeometry>
        </mxCell>
        <mxCell id="IY2qTd2_Xe75jXKFmGi5-43" value="string" style="shape=partialRectangle;connectable=0;fillColor=none;top=0;left=0;bottom=0;right=0;align=left;spacingLeft=6;overflow=hidden;" vertex="1" parent="IY2qTd2_Xe75jXKFmGi5-40">
          <mxGeometry x="231" width="120" height="30" as="geometry">
            <mxRectangle width="120" height="30" as="alternateBounds" />
          </mxGeometry>
        </mxCell>
        <mxCell id="IY2qTd2_Xe75jXKFmGi5-44" value="" style="shape=partialRectangle;collapsible=0;dropTarget=0;pointerEvents=0;fillColor=none;top=0;left=0;bottom=0;right=0;points=[[0,0.5],[1,0.5]];portConstraint=eastwest;" vertex="1" parent="IY2qTd2_Xe75jXKFmGi5-31">
          <mxGeometry y="120" width="351" height="30" as="geometry" />
        </mxCell>
        <mxCell id="IY2qTd2_Xe75jXKFmGi5-45" value="" style="shape=partialRectangle;connectable=0;fillColor=none;top=0;left=0;bottom=0;right=0;editable=1;overflow=hidden;" vertex="1" parent="IY2qTd2_Xe75jXKFmGi5-44">
          <mxGeometry width="30" height="30" as="geometry">
            <mxRectangle width="30" height="30" as="alternateBounds" />
          </mxGeometry>
        </mxCell>
        <mxCell id="IY2qTd2_Xe75jXKFmGi5-46" value="face_score" style="shape=partialRectangle;connectable=0;fillColor=none;top=0;left=0;bottom=0;right=0;align=left;spacingLeft=6;overflow=hidden;" vertex="1" parent="IY2qTd2_Xe75jXKFmGi5-44">
          <mxGeometry x="30" width="201" height="30" as="geometry">
            <mxRectangle width="201" height="30" as="alternateBounds" />
          </mxGeometry>
        </mxCell>
        <mxCell id="IY2qTd2_Xe75jXKFmGi5-47" value="integer" style="shape=partialRectangle;connectable=0;fillColor=none;top=0;left=0;bottom=0;right=0;align=left;spacingLeft=6;overflow=hidden;" vertex="1" parent="IY2qTd2_Xe75jXKFmGi5-44">
          <mxGeometry x="231" width="120" height="30" as="geometry">
            <mxRectangle width="120" height="30" as="alternateBounds" />
          </mxGeometry>
        </mxCell>
        <mxCell id="IY2qTd2_Xe75jXKFmGi5-48" style="shape=partialRectangle;collapsible=0;dropTarget=0;pointerEvents=0;fillColor=none;top=0;left=0;bottom=0;right=0;points=[[0,0.5],[1,0.5]];portConstraint=eastwest;" vertex="1" parent="IY2qTd2_Xe75jXKFmGi5-31">
          <mxGeometry y="150" width="351" height="30" as="geometry" />
        </mxCell>
        <mxCell id="IY2qTd2_Xe75jXKFmGi5-49" style="shape=partialRectangle;connectable=0;fillColor=none;top=0;left=0;bottom=0;right=0;editable=1;overflow=hidden;" vertex="1" parent="IY2qTd2_Xe75jXKFmGi5-48">
          <mxGeometry width="30" height="30" as="geometry">
            <mxRectangle width="30" height="30" as="alternateBounds" />
          </mxGeometry>
        </mxCell>
        <mxCell id="IY2qTd2_Xe75jXKFmGi5-50" value="defense_win_count" style="shape=partialRectangle;connectable=0;fillColor=none;top=0;left=0;bottom=0;right=0;align=left;spacingLeft=6;overflow=hidden;" vertex="1" parent="IY2qTd2_Xe75jXKFmGi5-48">
          <mxGeometry x="30" width="201" height="30" as="geometry">
            <mxRectangle width="201" height="30" as="alternateBounds" />
          </mxGeometry>
        </mxCell>
        <mxCell id="IY2qTd2_Xe75jXKFmGi5-51" value="integer" style="shape=partialRectangle;connectable=0;fillColor=none;top=0;left=0;bottom=0;right=0;align=left;spacingLeft=6;overflow=hidden;" vertex="1" parent="IY2qTd2_Xe75jXKFmGi5-48">
          <mxGeometry x="231" width="120" height="30" as="geometry">
            <mxRectangle width="120" height="30" as="alternateBounds" />
          </mxGeometry>
        </mxCell>
        <mxCell id="IY2qTd2_Xe75jXKFmGi5-52" style="shape=partialRectangle;collapsible=0;dropTarget=0;pointerEvents=0;fillColor=none;top=0;left=0;bottom=0;right=0;points=[[0,0.5],[1,0.5]];portConstraint=eastwest;" vertex="1" parent="IY2qTd2_Xe75jXKFmGi5-31">
          <mxGeometry y="180" width="351" height="30" as="geometry" />
        </mxCell>
        <mxCell id="IY2qTd2_Xe75jXKFmGi5-53" style="shape=partialRectangle;connectable=0;fillColor=none;top=0;left=0;bottom=0;right=0;editable=1;overflow=hidden;" vertex="1" parent="IY2qTd2_Xe75jXKFmGi5-52">
          <mxGeometry width="30" height="30" as="geometry">
            <mxRectangle width="30" height="30" as="alternateBounds" />
          </mxGeometry>
        </mxCell>
        <mxCell id="IY2qTd2_Xe75jXKFmGi5-54" value="main_choiced" style="shape=partialRectangle;connectable=0;fillColor=none;top=0;left=0;bottom=0;right=0;align=left;spacingLeft=6;overflow=hidden;" vertex="1" parent="IY2qTd2_Xe75jXKFmGi5-52">
          <mxGeometry x="30" width="201" height="30" as="geometry">
            <mxRectangle width="201" height="30" as="alternateBounds" />
          </mxGeometry>
        </mxCell>
        <mxCell id="IY2qTd2_Xe75jXKFmGi5-55" value="boolean" style="shape=partialRectangle;connectable=0;fillColor=none;top=0;left=0;bottom=0;right=0;align=left;spacingLeft=6;overflow=hidden;" vertex="1" parent="IY2qTd2_Xe75jXKFmGi5-52">
          <mxGeometry x="231" width="120" height="30" as="geometry">
            <mxRectangle width="120" height="30" as="alternateBounds" />
          </mxGeometry>
        </mxCell>
        <mxCell id="IY2qTd2_Xe75jXKFmGi5-56" value="Beats" style="shape=table;startSize=20;container=1;collapsible=1;childLayout=tableLayout;fixedRows=1;rowLines=0;fontStyle=1;align=center;resizeLast=1;" vertex="1" parent="IY2qTd2_Xe75jXKFmGi5-1">
          <mxGeometry x="431" y="80" width="351" height="130" as="geometry" />
        </mxCell>
        <mxCell id="IY2qTd2_Xe75jXKFmGi5-57" value="" style="shape=partialRectangle;collapsible=0;dropTarget=0;pointerEvents=0;fillColor=none;top=0;left=0;bottom=1;right=0;points=[[0,0.5],[1,0.5]];portConstraint=eastwest;" vertex="1" parent="IY2qTd2_Xe75jXKFmGi5-56">
          <mxGeometry y="20" width="351" height="30" as="geometry" />
        </mxCell>
        <mxCell id="IY2qTd2_Xe75jXKFmGi5-58" value="PK" style="shape=partialRectangle;connectable=0;fillColor=none;top=0;left=0;bottom=0;right=0;fontStyle=1;overflow=hidden;" vertex="1" parent="IY2qTd2_Xe75jXKFmGi5-57">
          <mxGeometry width="30" height="30" as="geometry">
            <mxRectangle width="30" height="30" as="alternateBounds" />
          </mxGeometry>
        </mxCell>
        <mxCell id="IY2qTd2_Xe75jXKFmGi5-59" value="ID" style="shape=partialRectangle;connectable=0;fillColor=none;top=0;left=0;bottom=0;right=0;align=left;spacingLeft=6;fontStyle=5;overflow=hidden;" vertex="1" parent="IY2qTd2_Xe75jXKFmGi5-57">
          <mxGeometry x="30" width="201" height="30" as="geometry">
            <mxRectangle width="201" height="30" as="alternateBounds" />
          </mxGeometry>
        </mxCell>
        <mxCell id="IY2qTd2_Xe75jXKFmGi5-60" value="uuid" style="shape=partialRectangle;connectable=0;fillColor=none;top=0;left=0;bottom=0;right=0;align=left;spacingLeft=6;fontStyle=5;overflow=hidden;" vertex="1" parent="IY2qTd2_Xe75jXKFmGi5-57">
          <mxGeometry x="231" width="120" height="30" as="geometry">
            <mxRectangle width="120" height="30" as="alternateBounds" />
          </mxGeometry>
        </mxCell>
        <mxCell id="IY2qTd2_Xe75jXKFmGi5-61" value="" style="shape=partialRectangle;collapsible=0;dropTarget=0;pointerEvents=0;fillColor=none;top=0;left=0;bottom=0;right=0;points=[[0,0.5],[1,0.5]];portConstraint=eastwest;" vertex="1" parent="IY2qTd2_Xe75jXKFmGi5-56">
          <mxGeometry y="50" width="351" height="30" as="geometry" />
        </mxCell>
        <mxCell id="IY2qTd2_Xe75jXKFmGi5-62" value="FK" style="shape=partialRectangle;connectable=0;fillColor=none;top=0;left=0;bottom=0;right=0;editable=1;overflow=hidden;" vertex="1" parent="IY2qTd2_Xe75jXKFmGi5-61">
          <mxGeometry width="30" height="30" as="geometry">
            <mxRectangle width="30" height="30" as="alternateBounds" />
          </mxGeometry>
        </mxCell>
        <mxCell id="IY2qTd2_Xe75jXKFmGi5-63" value="user_id" style="shape=partialRectangle;connectable=0;fillColor=none;top=0;left=0;bottom=0;right=0;align=left;spacingLeft=6;overflow=hidden;" vertex="1" parent="IY2qTd2_Xe75jXKFmGi5-61">
          <mxGeometry x="30" width="201" height="30" as="geometry">
            <mxRectangle width="201" height="30" as="alternateBounds" />
          </mxGeometry>
        </mxCell>
        <mxCell id="IY2qTd2_Xe75jXKFmGi5-64" value="uuid" style="shape=partialRectangle;connectable=0;fillColor=none;top=0;left=0;bottom=0;right=0;align=left;spacingLeft=6;overflow=hidden;" vertex="1" parent="IY2qTd2_Xe75jXKFmGi5-61">
          <mxGeometry x="231" width="120" height="30" as="geometry">
            <mxRectangle width="120" height="30" as="alternateBounds" />
          </mxGeometry>
        </mxCell>
        <mxCell id="IY2qTd2_Xe75jXKFmGi5-65" value="" style="shape=partialRectangle;collapsible=0;dropTarget=0;pointerEvents=0;fillColor=none;top=0;left=0;bottom=0;right=0;points=[[0,0.5],[1,0.5]];portConstraint=eastwest;" vertex="1" parent="IY2qTd2_Xe75jXKFmGi5-56">
          <mxGeometry y="80" width="351" height="30" as="geometry" />
        </mxCell>
        <mxCell id="IY2qTd2_Xe75jXKFmGi5-66" value="FK" style="shape=partialRectangle;connectable=0;fillColor=none;top=0;left=0;bottom=0;right=0;editable=1;overflow=hidden;" vertex="1" parent="IY2qTd2_Xe75jXKFmGi5-65">
          <mxGeometry width="30" height="30" as="geometry">
            <mxRectangle width="30" height="30" as="alternateBounds" />
          </mxGeometry>
        </mxCell>
        <mxCell id="IY2qTd2_Xe75jXKFmGi5-67" value="glaring_face_photo_id" style="shape=partialRectangle;connectable=0;fillColor=none;top=0;left=0;bottom=0;right=0;align=left;spacingLeft=6;overflow=hidden;" vertex="1" parent="IY2qTd2_Xe75jXKFmGi5-65">
          <mxGeometry x="30" width="201" height="30" as="geometry">
            <mxRectangle width="201" height="30" as="alternateBounds" />
          </mxGeometry>
        </mxCell>
        <mxCell id="IY2qTd2_Xe75jXKFmGi5-68" value="uuid" style="shape=partialRectangle;connectable=0;fillColor=none;top=0;left=0;bottom=0;right=0;align=left;spacingLeft=6;overflow=hidden;" vertex="1" parent="IY2qTd2_Xe75jXKFmGi5-65">
          <mxGeometry x="231" width="120" height="30" as="geometry">
            <mxRectangle width="120" height="30" as="alternateBounds" />
          </mxGeometry>
        </mxCell>
        <mxCell id="IY2qTd2_Xe75jXKFmGi5-69" value="" style="edgeStyle=entityRelationEdgeStyle;fontSize=12;html=1;endArrow=ERmany;exitX=1;exitY=0.5;exitDx=0;exitDy=0;entryX=0;entryY=0.5;entryDx=0;entryDy=0;" edge="1" parent="IY2qTd2_Xe75jXKFmGi5-1" source="IY2qTd2_Xe75jXKFmGi5-3" target="IY2qTd2_Xe75jXKFmGi5-61">
          <mxGeometry width="100" height="100" relative="1" as="geometry">
            <mxPoint x="382" y="140" as="sourcePoint" />
            <mxPoint x="482" y="40" as="targetPoint" />
          </mxGeometry>
        </mxCell>
        <mxCell id="IY2qTd2_Xe75jXKFmGi5-70" value="" style="edgeStyle=entityRelationEdgeStyle;fontSize=12;html=1;endArrow=ERmany;exitX=1;exitY=0.5;exitDx=0;exitDy=0;entryX=0;entryY=0.5;entryDx=0;entryDy=0;" edge="1" parent="IY2qTd2_Xe75jXKFmGi5-1" source="IY2qTd2_Xe75jXKFmGi5-7" target="IY2qTd2_Xe75jXKFmGi5-36">
          <mxGeometry width="100" height="100" relative="1" as="geometry">
            <mxPoint x="380.9999999999998" y="155" as="sourcePoint" />
            <mxPoint x="441" y="155" as="targetPoint" />
          </mxGeometry>
        </mxCell>
        <mxCell id="IY2qTd2_Xe75jXKFmGi5-71" value="" style="edgeStyle=entityRelationEdgeStyle;fontSize=12;html=1;endArrow=ERmany;entryX=1;entryY=0.5;entryDx=0;entryDy=0;" edge="1" parent="IY2qTd2_Xe75jXKFmGi5-1" source="IY2qTd2_Xe75jXKFmGi5-32" target="IY2qTd2_Xe75jXKFmGi5-65">
          <mxGeometry width="100" height="100" relative="1" as="geometry">
            <mxPoint x="400.9999999999998" y="155" as="sourcePoint" />
            <mxPoint x="461" y="335" as="targetPoint" />
          </mxGeometry>
        </mxCell>
        <mxCell id="IY2qTd2_Xe75jXKFmGi5-85" value="Battles" style="shape=table;startSize=30;container=1;collapsible=1;childLayout=tableLayout;fixedRows=1;rowLines=0;fontStyle=1;align=center;resizeLast=1;" vertex="1" parent="IY2qTd2_Xe75jXKFmGi5-1">
          <mxGeometry x="20" y="470" width="351" height="220" as="geometry" />
        </mxCell>
        <mxCell id="IY2qTd2_Xe75jXKFmGi5-86" value="" style="shape=partialRectangle;collapsible=0;dropTarget=0;pointerEvents=0;fillColor=none;top=0;left=0;bottom=1;right=0;points=[[0,0.5],[1,0.5]];portConstraint=eastwest;" vertex="1" parent="IY2qTd2_Xe75jXKFmGi5-85">
          <mxGeometry y="30" width="351" height="30" as="geometry" />
        </mxCell>
        <mxCell id="IY2qTd2_Xe75jXKFmGi5-87" value="PK" style="shape=partialRectangle;connectable=0;fillColor=none;top=0;left=0;bottom=0;right=0;fontStyle=1;overflow=hidden;" vertex="1" parent="IY2qTd2_Xe75jXKFmGi5-86">
          <mxGeometry width="30" height="30" as="geometry">
            <mxRectangle width="30" height="30" as="alternateBounds" />
          </mxGeometry>
        </mxCell>
        <mxCell id="IY2qTd2_Xe75jXKFmGi5-88" value="ID" style="shape=partialRectangle;connectable=0;fillColor=none;top=0;left=0;bottom=0;right=0;align=left;spacingLeft=6;fontStyle=5;overflow=hidden;" vertex="1" parent="IY2qTd2_Xe75jXKFmGi5-86">
          <mxGeometry x="30" width="201.00000000000003" height="30" as="geometry">
            <mxRectangle width="201.00000000000003" height="30" as="alternateBounds" />
          </mxGeometry>
        </mxCell>
        <mxCell id="IY2qTd2_Xe75jXKFmGi5-89" value="uuid" style="shape=partialRectangle;connectable=0;fillColor=none;top=0;left=0;bottom=0;right=0;align=left;spacingLeft=6;fontStyle=5;overflow=hidden;" vertex="1" parent="IY2qTd2_Xe75jXKFmGi5-86">
          <mxGeometry x="231.00000000000003" width="119.99999999999997" height="30" as="geometry">
            <mxRectangle width="119.99999999999997" height="30" as="alternateBounds" />
          </mxGeometry>
        </mxCell>
        <mxCell id="IY2qTd2_Xe75jXKFmGi5-90" value="" style="shape=partialRectangle;collapsible=0;dropTarget=0;pointerEvents=0;fillColor=none;top=0;left=0;bottom=0;right=0;points=[[0,0.5],[1,0.5]];portConstraint=eastwest;" vertex="1" parent="IY2qTd2_Xe75jXKFmGi5-85">
          <mxGeometry y="60" width="351" height="30" as="geometry" />
        </mxCell>
        <mxCell id="IY2qTd2_Xe75jXKFmGi5-91" value="" style="shape=partialRectangle;connectable=0;fillColor=none;top=0;left=0;bottom=0;right=0;editable=1;overflow=hidden;" vertex="1" parent="IY2qTd2_Xe75jXKFmGi5-90">
          <mxGeometry width="30" height="30" as="geometry">
            <mxRectangle width="30" height="30" as="alternateBounds" />
          </mxGeometry>
        </mxCell>
        <mxCell id="IY2qTd2_Xe75jXKFmGi5-92" value="challenger_name" style="shape=partialRectangle;connectable=0;fillColor=none;top=0;left=0;bottom=0;right=0;align=left;spacingLeft=6;overflow=hidden;" vertex="1" parent="IY2qTd2_Xe75jXKFmGi5-90">
          <mxGeometry x="30" width="201.00000000000003" height="30" as="geometry">
            <mxRectangle width="201.00000000000003" height="30" as="alternateBounds" />
          </mxGeometry>
        </mxCell>
        <mxCell id="IY2qTd2_Xe75jXKFmGi5-93" value="string" style="shape=partialRectangle;connectable=0;fillColor=none;top=0;left=0;bottom=0;right=0;align=left;spacingLeft=6;overflow=hidden;" vertex="1" parent="IY2qTd2_Xe75jXKFmGi5-90">
          <mxGeometry x="231.00000000000003" width="119.99999999999997" height="30" as="geometry">
            <mxRectangle width="119.99999999999997" height="30" as="alternateBounds" />
          </mxGeometry>
        </mxCell>
        <mxCell id="IY2qTd2_Xe75jXKFmGi5-94" style="shape=partialRectangle;collapsible=0;dropTarget=0;pointerEvents=0;fillColor=none;top=0;left=0;bottom=0;right=0;points=[[0,0.5],[1,0.5]];portConstraint=eastwest;" vertex="1" parent="IY2qTd2_Xe75jXKFmGi5-85">
          <mxGeometry y="90" width="351" height="30" as="geometry" />
        </mxCell>
        <mxCell id="IY2qTd2_Xe75jXKFmGi5-95" style="shape=partialRectangle;connectable=0;fillColor=none;top=0;left=0;bottom=0;right=0;editable=1;overflow=hidden;" vertex="1" parent="IY2qTd2_Xe75jXKFmGi5-94">
          <mxGeometry width="30" height="30" as="geometry">
            <mxRectangle width="30" height="30" as="alternateBounds" />
          </mxGeometry>
        </mxCell>
        <mxCell id="IY2qTd2_Xe75jXKFmGi5-96" value="enemy_name" style="shape=partialRectangle;connectable=0;fillColor=none;top=0;left=0;bottom=0;right=0;align=left;spacingLeft=6;overflow=hidden;" vertex="1" parent="IY2qTd2_Xe75jXKFmGi5-94">
          <mxGeometry x="30" width="201.00000000000003" height="30" as="geometry">
            <mxRectangle width="201.00000000000003" height="30" as="alternateBounds" />
          </mxGeometry>
        </mxCell>
        <mxCell id="IY2qTd2_Xe75jXKFmGi5-97" value="string" style="shape=partialRectangle;connectable=0;fillColor=none;top=0;left=0;bottom=0;right=0;align=left;spacingLeft=6;overflow=hidden;" vertex="1" parent="IY2qTd2_Xe75jXKFmGi5-94">
          <mxGeometry x="231.00000000000003" width="119.99999999999997" height="30" as="geometry">
            <mxRectangle width="119.99999999999997" height="30" as="alternateBounds" />
          </mxGeometry>
        </mxCell>
        <mxCell id="IY2qTd2_Xe75jXKFmGi5-98" style="shape=partialRectangle;collapsible=0;dropTarget=0;pointerEvents=0;fillColor=none;top=0;left=0;bottom=0;right=0;points=[[0,0.5],[1,0.5]];portConstraint=eastwest;" vertex="1" parent="IY2qTd2_Xe75jXKFmGi5-85">
          <mxGeometry y="120" width="351" height="30" as="geometry" />
        </mxCell>
        <mxCell id="IY2qTd2_Xe75jXKFmGi5-99" style="shape=partialRectangle;connectable=0;fillColor=none;top=0;left=0;bottom=0;right=0;editable=1;overflow=hidden;" vertex="1" parent="IY2qTd2_Xe75jXKFmGi5-98">
          <mxGeometry width="30" height="30" as="geometry">
            <mxRectangle width="30" height="30" as="alternateBounds" />
          </mxGeometry>
        </mxCell>
        <mxCell id="IY2qTd2_Xe75jXKFmGi5-100" value="challenger_score" style="shape=partialRectangle;connectable=0;fillColor=none;top=0;left=0;bottom=0;right=0;align=left;spacingLeft=6;overflow=hidden;" vertex="1" parent="IY2qTd2_Xe75jXKFmGi5-98">
          <mxGeometry x="30" width="201.00000000000003" height="30" as="geometry">
            <mxRectangle width="201.00000000000003" height="30" as="alternateBounds" />
          </mxGeometry>
        </mxCell>
        <mxCell id="IY2qTd2_Xe75jXKFmGi5-101" value="integer" style="shape=partialRectangle;connectable=0;fillColor=none;top=0;left=0;bottom=0;right=0;align=left;spacingLeft=6;overflow=hidden;" vertex="1" parent="IY2qTd2_Xe75jXKFmGi5-98">
          <mxGeometry x="231.00000000000003" width="119.99999999999997" height="30" as="geometry">
            <mxRectangle width="119.99999999999997" height="30" as="alternateBounds" />
          </mxGeometry>
        </mxCell>
        <mxCell id="IY2qTd2_Xe75jXKFmGi5-102" style="shape=partialRectangle;collapsible=0;dropTarget=0;pointerEvents=0;fillColor=none;top=0;left=0;bottom=0;right=0;points=[[0,0.5],[1,0.5]];portConstraint=eastwest;" vertex="1" parent="IY2qTd2_Xe75jXKFmGi5-85">
          <mxGeometry y="150" width="351" height="30" as="geometry" />
        </mxCell>
        <mxCell id="IY2qTd2_Xe75jXKFmGi5-103" style="shape=partialRectangle;connectable=0;fillColor=none;top=0;left=0;bottom=0;right=0;editable=1;overflow=hidden;" vertex="1" parent="IY2qTd2_Xe75jXKFmGi5-102">
          <mxGeometry width="30" height="30" as="geometry">
            <mxRectangle width="30" height="30" as="alternateBounds" />
          </mxGeometry>
        </mxCell>
        <mxCell id="IY2qTd2_Xe75jXKFmGi5-104" value="enemy_score" style="shape=partialRectangle;connectable=0;fillColor=none;top=0;left=0;bottom=0;right=0;align=left;spacingLeft=6;overflow=hidden;" vertex="1" parent="IY2qTd2_Xe75jXKFmGi5-102">
          <mxGeometry x="30" width="201.00000000000003" height="30" as="geometry">
            <mxRectangle width="201.00000000000003" height="30" as="alternateBounds" />
          </mxGeometry>
        </mxCell>
        <mxCell id="IY2qTd2_Xe75jXKFmGi5-105" value="integer" style="shape=partialRectangle;connectable=0;fillColor=none;top=0;left=0;bottom=0;right=0;align=left;spacingLeft=6;overflow=hidden;" vertex="1" parent="IY2qTd2_Xe75jXKFmGi5-102">
          <mxGeometry x="231.00000000000003" width="119.99999999999997" height="30" as="geometry">
            <mxRectangle width="119.99999999999997" height="30" as="alternateBounds" />
          </mxGeometry>
        </mxCell>
        <mxCell id="IY2qTd2_Xe75jXKFmGi5-106" style="shape=partialRectangle;collapsible=0;dropTarget=0;pointerEvents=0;fillColor=none;top=0;left=0;bottom=0;right=0;points=[[0,0.5],[1,0.5]];portConstraint=eastwest;" vertex="1" parent="IY2qTd2_Xe75jXKFmGi5-85">
          <mxGeometry y="180" width="351" height="30" as="geometry" />
        </mxCell>
        <mxCell id="IY2qTd2_Xe75jXKFmGi5-107" style="shape=partialRectangle;connectable=0;fillColor=none;top=0;left=0;bottom=0;right=0;editable=1;overflow=hidden;" vertex="1" parent="IY2qTd2_Xe75jXKFmGi5-106">
          <mxGeometry width="30" height="30" as="geometry">
            <mxRectangle width="30" height="30" as="alternateBounds" />
          </mxGeometry>
        </mxCell>
        <mxCell id="IY2qTd2_Xe75jXKFmGi5-108" value="battle_result&#xa;(challenger: 0, enemy: 1, draw: 2)" style="shape=partialRectangle;connectable=0;fillColor=none;top=0;left=0;bottom=0;right=0;align=left;spacingLeft=6;overflow=hidden;" vertex="1" parent="IY2qTd2_Xe75jXKFmGi5-106">
          <mxGeometry x="30" width="201.00000000000003" height="30" as="geometry">
            <mxRectangle width="201.00000000000003" height="30" as="alternateBounds" />
          </mxGeometry>
        </mxCell>
        <mxCell id="IY2qTd2_Xe75jXKFmGi5-109" value="integer（enum）" style="shape=partialRectangle;connectable=0;fillColor=none;top=0;left=0;bottom=0;right=0;align=left;spacingLeft=6;overflow=hidden;" vertex="1" parent="IY2qTd2_Xe75jXKFmGi5-106">
          <mxGeometry x="231.00000000000003" width="119.99999999999997" height="30" as="geometry">
            <mxRectangle width="119.99999999999997" height="30" as="alternateBounds" />
          </mxGeometry>
        </mxCell>
      </root>
    </mxGraphModel>
  </diagram>
</mxfile>
